<svg width="20" height="20" viewBox="0 0 20 20" fill="none" xmlns="http://www.w3.org/2000/svg">
<path d="M14.3053 11.1602C14.4516 11.1318 14.603 11.1449 14.7423 11.198L17.564 12.273C17.8742 12.3912 18.0792 12.6887 18.0792 13.0206V15.6257C18.0792 16.9554 16.9027 18.0528 15.5118 17.7507L15.5113 17.7506C13.2794 17.2644 9.10693 16.0243 6.17393 13.0913C3.35761 10.275 2.42211 6.39767 2.1086 4.32068L14.3053 11.1602ZM14.3053 11.1602L11.5835 11.6876C9.91135 10.8091 8.91244 9.84334 8.29673 8.4395L8.81262 5.67249C8.83937 5.52901 8.82636 5.38095 8.77499 5.24433M14.3053 11.1602L8.77499 5.24433M8.77499 5.24433L7.7174 2.43136C7.60013 2.11944 7.3018 1.91289 6.96858 1.91289M8.77499 5.24433L6.96858 1.91289M6.96858 1.91289H4.2421M6.96858 1.91289H4.2421M4.2421 1.91289C2.98672 1.91289 1.9048 2.97401 2.10853 4.32017L4.2421 1.91289Z" stroke="#252B5C" stroke-width="1.6" stroke-linecap="round" stroke-linejoin="round"/>
</svg>
