<svg width="20" height="20" viewBox="0 0 20 20" fill="none" xmlns="http://www.w3.org/2000/svg">
<path d="M5.8335 7.5L10.0002 10.4167L14.1668 7.5" stroke="#ECEDF3" stroke-width="1.6" stroke-linecap="round" stroke-linejoin="round"/>
<path d="M1.66675 14.1667V5.83341C1.66675 5.39139 1.84234 4.96746 2.1549 4.6549C2.46746 4.34234 2.89139 4.16675 3.33341 4.16675H16.6667C17.1088 4.16675 17.5327 4.34234 17.8453 4.6549C18.1578 4.96746 18.3334 5.39139 18.3334 5.83341V14.1667C18.3334 14.6088 18.1578 15.0327 17.8453 15.3453C17.5327 15.6578 17.1088 15.8334 16.6667 15.8334H3.33341C2.89139 15.8334 2.46746 15.6578 2.1549 15.3453C1.84234 15.0327 1.66675 14.6088 1.66675 14.1667Z" stroke="#ECEDF3" stroke-width="1.6"/>
</svg>
