<svg width="100" height="100" viewBox="0 0 100 100" fill="none" xmlns="http://www.w3.org/2000/svg">
<rect width="100" height="100" rx="50" fill="#F5F4F8"/>
<g opacity="0.5">
<path d="M50 27.1428C52.2733 27.1428 54.4535 28.0459 56.0609 29.6533C57.6684 31.2608 58.5714 33.441 58.5714 35.7143V41.4285C58.5714 43.7018 57.6684 45.882 56.0609 47.4895C54.4535 49.0969 52.2733 50 50 50C47.7267 50 45.5465 49.0969 43.9391 47.4895C42.3316 45.882 41.4286 43.7018 41.4286 41.4285V35.7143C41.4286 33.441 42.3316 31.2608 43.9391 29.6533C45.5465 28.0459 47.7267 27.1428 50 27.1428ZM70 67.1428V65.0628C70 55.9571 59.4686 50 50 50C40.5314 50 30 55.9571 30 65.0628V67.1428C30 67.9006 30.301 68.6273 30.8368 69.1631C31.3727 69.6989 32.0994 70 32.8571 70H67.1429C67.9006 70 68.6273 69.6989 69.1632 69.1631C69.699 68.6273 70 67.9006 70 67.1428Z" fill="#A1A5C1" stroke="#F5F4F8" stroke-width="3" stroke-linecap="round" stroke-linejoin="round"/>
</g>
<circle cx="85" cy="85" r="15" fill="#234F68"/>
<path d="M85.51 81.914L87.985 84.389M85.51 81.914L86.925 80.5L89.3995 82.975L87.985 84.389L85.51 81.914ZM85.51 81.914L80.707 86.7175C80.6133 86.8112 80.5606 86.9384 80.5605 87.071V89.339H82.8285C82.9611 89.339 83.0883 89.2863 83.182 89.1925L87.985 84.389L85.51 81.914Z" stroke="white" stroke-linecap="round" stroke-linejoin="round"/>
</svg>
